<svg width="1440" height="789" viewBox="0 0 1440 789" fill="none" xmlns="http://www.w3.org/2000/svg">
<path d="M720.4 1453.04C1123.79 1453.04 1450.8 1116.13 1450.8 700.521C1450.8 284.915 1123.79 -52 720.4 -52C317.011 -52 -10 284.915 -10 700.521C-10 1116.13 317.011 1453.04 720.4 1453.04Z" stroke="black" stroke-opacity="0.18" stroke-width="2.61292" stroke-miterlimit="10" style="mix-blend-mode:soft-light"/>
<path d="M720.399 1423.96C1108.2 1423.96 1422.57 1100.07 1422.57 700.521C1422.57 300.976 1108.2 -22.9189 720.399 -22.9189C332.599 -22.9189 18.2246 300.976 18.2246 700.521C18.2246 1100.07 332.599 1423.96 720.399 1423.96Z" stroke="black" stroke-opacity="0.18" stroke-width="2.61292" stroke-miterlimit="10" style="mix-blend-mode:soft-light"/>
<path d="M720.402 1394.87C1092.61 1394.87 1394.34 1084 1394.34 700.521C1394.34 317.042 1092.61 6.16992 720.402 6.16992C348.195 6.16992 46.462 317.042 46.462 700.521C46.462 1084 348.195 1394.87 720.402 1394.87Z" stroke="black" stroke-opacity="0.18" stroke-width="2.61292" stroke-miterlimit="10" style="mix-blend-mode:soft-light"/>
<path d="M720.401 1365.79C1077.02 1365.79 1366.11 1067.94 1366.11 700.521C1366.11 333.102 1077.02 35.2505 720.401 35.2505C363.783 35.2505 74.6865 333.102 74.6865 700.521C74.6865 1067.94 363.783 1365.79 720.401 1365.79Z" stroke="black" stroke-opacity="0.18" stroke-width="2.61292" stroke-miterlimit="10" style="mix-blend-mode:soft-light"/>
<path d="M720.399 1336.71C1061.43 1336.71 1337.89 1051.88 1337.89 700.521C1337.89 349.163 1061.43 64.3311 720.399 64.3311C379.37 64.3311 102.911 349.163 102.911 700.521C102.911 1051.88 379.37 1336.71 720.399 1336.71Z" stroke="black" stroke-opacity="0.18" stroke-width="2.61292" stroke-miterlimit="10" style="mix-blend-mode:soft-light"/>
<path d="M720.402 1307.63C1045.84 1307.63 1309.66 1035.82 1309.66 700.521C1309.66 365.224 1045.84 93.4121 720.402 93.4121C394.961 93.4121 131.14 365.224 131.14 700.521C131.14 1035.82 394.961 1307.63 720.402 1307.63Z" stroke="black" stroke-opacity="0.18" stroke-width="2.61292" stroke-miterlimit="10" style="mix-blend-mode:soft-light"/>
<path d="M720.4 1278.54C1030.25 1278.54 1281.43 1019.75 1281.43 700.521C1281.43 381.29 1030.25 122.501 720.4 122.501C410.553 122.501 159.372 381.29 159.372 700.521C159.372 1019.75 410.553 1278.54 720.4 1278.54Z" stroke="black" stroke-opacity="0.18" stroke-width="2.61292" stroke-miterlimit="10" style="mix-blend-mode:soft-light"/>
<path d="M720.399 1249.46C1014.66 1249.46 1253.2 1003.69 1253.2 700.521C1253.2 397.35 1014.66 151.582 720.399 151.582C426.141 151.582 187.597 397.35 187.597 700.521C187.597 1003.69 426.141 1249.46 720.399 1249.46Z" stroke="black" stroke-opacity="0.18" stroke-width="2.61292" stroke-miterlimit="10" style="mix-blend-mode:soft-light"/>
<path d="M720.4 1220.38C999.07 1220.38 1224.98 987.631 1224.98 700.521C1224.98 413.412 999.07 180.663 720.4 180.663C441.73 180.663 215.823 413.412 215.823 700.521C215.823 987.631 441.73 1220.38 720.4 1220.38Z" stroke="black" stroke-opacity="0.18" stroke-width="2.61292" stroke-miterlimit="10" style="mix-blend-mode:soft-light"/>
<path d="M720.398 1191.3C983.48 1191.3 1196.75 971.57 1196.75 700.521C1196.75 429.472 983.48 209.744 720.398 209.744C457.317 209.744 244.048 429.472 244.048 700.521C244.048 971.57 457.317 1191.3 720.398 1191.3Z" stroke="black" stroke-opacity="0.18" stroke-width="2.61292" stroke-miterlimit="10" style="mix-blend-mode:soft-light"/>
<path d="M720.401 1162.21C967.889 1162.21 1168.52 955.505 1168.52 700.521C1168.52 445.538 967.889 238.833 720.401 238.833C472.913 238.833 272.284 445.538 272.284 700.521C272.284 955.505 472.913 1162.21 720.401 1162.21Z" stroke="black" stroke-opacity="0.18" stroke-width="2.61292" stroke-miterlimit="10" style="mix-blend-mode:soft-light"/>
<path d="M720.4 1133.13C952.299 1133.13 1140.29 939.444 1140.29 700.521C1140.29 461.598 952.299 267.913 720.4 267.913C488.5 267.913 300.509 461.598 300.509 700.521C300.509 939.444 488.5 1133.13 720.4 1133.13Z" stroke="black" stroke-opacity="0.18" stroke-width="2.61292" stroke-miterlimit="10" style="mix-blend-mode:soft-light"/>
<path d="M720.398 1104.05C936.709 1104.05 1112.06 923.383 1112.06 700.521C1112.06 477.659 936.709 296.994 720.398 296.994C504.088 296.994 328.733 477.659 328.733 700.521C328.733 923.383 504.088 1104.05 720.398 1104.05Z" stroke="black" stroke-opacity="0.18" stroke-width="2.61292" stroke-miterlimit="10" style="mix-blend-mode:soft-light"/>
<path d="M720.401 1074.97C921.123 1074.97 1083.84 907.322 1083.84 700.521C1083.84 493.72 921.123 326.075 720.401 326.075C519.679 326.075 356.962 493.72 356.962 700.521C356.962 907.322 519.679 1074.97 720.401 1074.97Z" stroke="black" stroke-opacity="0.18" stroke-width="2.61292" stroke-miterlimit="10" style="mix-blend-mode:soft-light"/>
<path d="M720.4 1045.88C905.529 1045.88 1055.61 891.257 1055.61 700.521C1055.61 509.786 905.529 355.164 720.4 355.164C535.271 355.164 385.195 509.786 385.195 700.521C385.195 891.257 535.271 1045.88 720.4 1045.88Z" stroke="black" stroke-opacity="0.18" stroke-width="2.61292" stroke-miterlimit="10" style="mix-blend-mode:soft-light"/>
<path d="M720.401 1016.8C889.941 1016.8 1027.38 875.196 1027.38 700.521C1027.38 525.847 889.941 384.245 720.401 384.245C550.861 384.245 413.422 525.847 413.422 700.521C413.422 875.196 550.861 1016.8 720.401 1016.8Z" stroke="black" stroke-opacity="0.18" stroke-width="2.61292" stroke-miterlimit="10" style="mix-blend-mode:soft-light"/>
<path d="M720.4 987.717C874.351 987.717 999.153 859.135 999.153 700.521C999.153 541.907 874.351 413.326 720.4 413.326C566.449 413.326 441.647 541.907 441.647 700.521C441.647 859.135 566.449 987.717 720.4 987.717Z" stroke="black" stroke-opacity="0.18" stroke-width="2.61292" stroke-miterlimit="10" style="mix-blend-mode:soft-light"/>
<path d="M720.4 958.636C858.763 958.636 970.928 843.074 970.928 700.521C970.928 557.968 858.763 442.406 720.4 442.406C582.038 442.406 469.873 557.968 469.873 700.521C469.873 843.074 582.038 958.636 720.4 958.636Z" stroke="black" stroke-opacity="0.18" stroke-width="2.61292" stroke-miterlimit="10" style="mix-blend-mode:soft-light"/>
<path d="M720.4 929.547C843.17 929.547 942.694 827.009 942.694 700.521C942.694 574.034 843.17 471.496 720.4 471.496C597.631 471.496 498.107 574.034 498.107 700.521C498.107 827.009 597.631 929.547 720.4 929.547Z" stroke="black" stroke-opacity="0.18" stroke-width="2.61292" stroke-miterlimit="10" style="mix-blend-mode:soft-light"/>
<path d="M720.398 900.466C827.579 900.466 914.466 810.948 914.466 700.522C914.466 590.095 827.579 500.577 720.398 500.577C613.218 500.577 526.331 590.095 526.331 700.522C526.331 810.948 613.218 900.466 720.398 900.466Z" stroke="black" stroke-opacity="0.18" stroke-width="2.61292" stroke-miterlimit="10" style="mix-blend-mode:soft-light"/>
<path d="M720.399 871.385C811.991 871.385 886.24 794.887 886.24 700.521C886.24 606.156 811.991 529.657 720.399 529.657C628.807 529.657 554.558 606.156 554.558 700.521C554.558 794.887 628.807 871.385 720.399 871.385Z" stroke="black" stroke-opacity="0.18" stroke-width="2.61292" stroke-miterlimit="10" style="mix-blend-mode:soft-light"/>
<path d="M720.398 842.304C796.401 842.304 858.013 778.826 858.013 700.521C858.013 622.216 796.401 558.738 720.398 558.738C644.395 558.738 582.782 622.216 582.782 700.521C582.782 778.826 644.395 842.304 720.398 842.304Z" stroke="black" stroke-opacity="0.18" stroke-width="2.61292" stroke-miterlimit="10" style="mix-blend-mode:soft-light"/>
<path d="M720.399 813.216C780.809 813.216 829.781 762.761 829.781 700.521C829.781 638.282 780.809 587.827 720.399 587.827C659.989 587.827 611.018 638.282 611.018 700.521C611.018 762.761 659.989 813.216 720.399 813.216Z" stroke="black" stroke-opacity="0.18" stroke-width="2.61292" stroke-miterlimit="10" style="mix-blend-mode:soft-light"/>
<path d="M720.4 784.135C765.221 784.135 801.555 746.7 801.555 700.522C801.555 654.343 765.221 616.908 720.4 616.908C675.579 616.908 639.244 654.343 639.244 700.522C639.244 746.7 675.579 784.135 720.4 784.135Z" stroke="black" stroke-opacity="0.18" stroke-width="2.61292" stroke-miterlimit="10" style="mix-blend-mode:soft-light"/>
</svg>
