<svg width="327" height="282" viewBox="0 0 327 282" fill="none" xmlns="http://www.w3.org/2000/svg">
<path d="M136.152 248.452C133.306 250.282 131.003 254.735 131.003 258.396V301.4C131.003 305.061 133.306 309.514 136.152 311.344L169.559 332.846C172.404 334.676 177.017 334.676 179.864 332.846L213.27 311.344C216.108 309.514 218.419 305.061 218.419 301.4V258.396C218.419 254.735 216.108 250.282 213.27 248.452L179.864 226.95C177.017 225.12 172.404 225.12 169.559 226.95L136.152 248.452Z" stroke="#323333" stroke-opacity="0.12" stroke-width="2.50974"/>
<path d="M188.009 45.3035C182.977 48.5391 178.907 56.4117 178.907 62.8847V138.907C178.907 145.38 182.977 153.253 188.009 156.488L247.069 194.499C252.097 197.737 260.254 197.737 265.286 194.499L324.344 156.488C329.36 153.253 333.447 145.38 333.447 138.907V62.8828C333.447 56.4117 329.36 48.5391 324.344 45.3035L265.286 7.29233C260.254 4.0549 252.097 4.0549 247.069 7.29233L188.009 45.3035Z" stroke="#323333" stroke-opacity="0.12" stroke-width="4.43722"/>
<path d="M7.30259 160.059C4.45634 161.889 2.15356 166.342 2.15356 170.003V213.007C2.15356 216.668 4.45634 221.12 7.30259 222.951L40.7093 244.453C43.5539 246.283 48.1677 246.283 51.014 244.453L84.4207 222.951C87.2587 221.12 89.5697 216.668 89.5697 213.007V170.003C89.5697 166.342 87.2587 161.889 84.4207 160.059L51.014 138.557C48.1677 136.726 43.5539 136.726 40.7093 138.557L7.30259 160.059Z" stroke="#323333" stroke-opacity="0.12" stroke-width="2.50974"/>
</svg>
