<svg width="275" height="194" viewBox="0 0 275 194" fill="none" xmlns="http://www.w3.org/2000/svg">
<path d="M81.3812 120.954C78.6431 122.464 76.4278 126.138 76.4278 129.158V164.632C76.4278 167.652 78.6431 171.326 81.3812 172.836L113.519 190.573C116.255 192.083 120.694 192.083 123.432 190.573L155.569 172.836C158.299 171.326 160.523 167.652 160.523 164.632V129.158C160.523 126.138 158.299 122.464 155.569 120.954L123.432 103.217C120.694 101.707 116.255 101.707 113.519 103.217L81.3812 120.954Z" stroke="#323333" stroke-opacity="0.12" stroke-width="2.07035"/>
<path d="M131.268 -46.6279C126.427 -43.9588 122.512 -37.4645 122.512 -32.1248V30.5881C122.512 35.9278 126.427 42.4221 131.268 45.0912L188.083 76.4476C192.921 79.1182 200.768 79.1182 205.608 76.4476L262.422 45.0912C267.249 42.4221 271.18 35.9278 271.18 30.5881V-32.1263C271.18 -37.4645 267.249 -43.9588 262.422 -46.6279L205.608 -77.9843C200.768 -80.655 192.921 -80.655 188.083 -77.9843L131.268 -46.6279Z" stroke="#323333" stroke-opacity="0.12" stroke-width="3.66037"/>
<path d="M-42.5728 48.0364C-45.3109 49.5464 -47.5262 53.2197 -47.5262 56.2397V91.7145C-47.5262 94.7345 -45.3109 98.4078 -42.5728 99.9178L-10.4353 117.655C-7.6988 119.165 -3.2603 119.165 -0.522185 117.655L31.6153 99.9178C34.3454 98.4078 36.5687 94.7345 36.5687 91.7145V56.2397C36.5687 53.2197 34.3454 49.5464 31.6153 48.0364L-0.522185 30.299C-3.2603 28.789 -7.6988 28.789 -10.4353 30.299L-42.5728 48.0364Z" stroke="#323333" stroke-opacity="0.12" stroke-width="2.07035"/>
</svg>
